HIERARCHY
ROOT Hips
{
  OFFSET 0 0 0
  CHANNELS 6 Xposition Yposition Zposition Zrotation Yrotation Xrotation
  JOINT LeftThigh
  {
    OFFSET 8.509551 0 -5.988202
    CHANNELS 3 Zrotation Yrotation Xrotation
    JOINT LeftLeg
    {
      OFFSET 0 0 -42.862921
      CHANNELS 3 Zrotation Yrotation Xrotation
      JOINT LeftFoot
      {
        OFFSET 0 0 -39.825843
        CHANNELS 3 Zrotation Yrotation Xrotation
        End Site
        {
          OFFSET 0 -13.487303 -5.068483
        }
      }
    }
  }
  JOINT RightThigh
  {
    OFFSET -8.509551 0 -5.988202
    CHANNELS 3 Zrotation Yrotation Xrotation
    JOINT RightLeg
    {
      OFFSET 0 0 -42.862921
      CHANNELS 3 Zrotation Yrotation Xrotation
      JOINT RightFoot
      {
        OFFSET 0 0 -39.825843
        CHANNELS 3 Zrotation Yrotation Xrotation
        End Site
        {
          OFFSET 0 -13.487303 -5.068483
        }
      }
    }
  }
  JOINT SpineLow
  {
    OFFSET 0 0 4.775281
    CHANNELS 3 Zrotation Yrotation Xrotation
    JOINT SpineMid
    {
      OFFSET 0 0 13.052753
      CHANNELS 3 Zrotation Yrotation Xrotation
      JOINT Chest
      {
        OFFSET 0 0 13.052753
        CHANNELS 3 Zrotation Yrotation Xrotation
        JOINT LeftShoulder
        {
          OFFSET 7.640449 1.432584 9.550562
          CHANNELS 3 Zrotation Yrotation Xrotation
          JOINT LeftArm
          {
            OFFSET 9.264045 0 4.297753
            CHANNELS 3 Zrotation Yrotation Xrotation
            JOINT LeftForearm
            {
              OFFSET 0 0 26.078764
              CHANNELS 3 Zrotation Yrotation Xrotation
              JOINT LeftHand
              {
                OFFSET 0 0 25.497135
                CHANNELS 3 Zrotation Yrotation Xrotation
              }
            }
          }
        }
        JOINT RightShoulder
        {
          OFFSET -7.640449 1.432584 9.550562
          CHANNELS 3 Zrotation Yrotation Xrotation
          JOINT RightArm
          {
            OFFSET -9.264045 0 4.297753
            CHANNELS 3 Zrotation Yrotation Xrotation
            JOINT RightForearm
            {
              OFFSET 0 0 -26.078764
              CHANNELS 3 Zrotation Yrotation Xrotation
              JOINT RightHand
              {
                OFFSET 0 0 -25.497135
                CHANNELS 3 Zrotation Yrotation Xrotation
              }
            }
          }
        }
        JOINT Neck
        {
          OFFSET 0 0 15.280899
          CHANNELS 3 Zrotation Yrotation Xrotation
          JOINT Head
          {
            OFFSET 0 0 11.460674
            CHANNELS 3 Zrotation Yrotation Xrotation
            End Site
            {
              OFFSET 0 0 7.325843
            }
          }
        }
      }
    }
  }
}
MOTION
Frames: 12
Frame Time: 0.01
209.027998124772  61.279408  106.024015467586  -1.137771  23.688818  -88.982106  -14.403643  -48.41892  -43.369158  4.409026  22.975968  47.453354  -8.373495  20.432796  -10.484985  -40.6843  24.995256  -26.556841  8.391352  3.988983  63.780234  5.900806  -16.07074  -17.215781  -0.507964  -0.800411  1.36876  -1.43373  -2.158174  3.759228  -1.43373  -2.158174  3.759228  -2.572261  5.173587  8.676521  96.162948  27.344762  112.82291  -10.442879  3.50898  110.427003  85.649159  7.20807  4.943071  22.773615  -4.46081  7.087509  77.375809  4.042674  63.436739  -46.039217  22.907618  -148.765813  78.695964  1.611343  12.045731  -40.737578  -8.705836  -0.246024  -30.497087  -6.547473  -0.774137  
208.931091803528  61.073246  105.552732467586  -0.990078  24.205684  -89.608071  -15.151265  -47.766058  -42.937517  5.011656  21.249002  47.530081  -9.948238  21.348162  -10.365428  -39.740635  25.571674  -25.814598  7.983661  3.939514  64.82542  5.234958  -15.866101  -17.657983  -0.513528  -0.797833  1.438559  -1.451036  -2.149246  3.950183  -1.451036  -2.149246  3.950184  -2.274867  5.090068  8.968993  96.361484  27.934401  113.286622  -10.343663  3.271837  110.122689  85.994152  7.024302  4.920038  22.830304  -4.468836  7.262309  77.519397  4.08135  63.38502  -46.367926  23.037925  -148.819913  78.449992  1.602084  11.709796  -41.022311  -8.346323  -0.217636  -30.714556  -6.278697  -0.732183  
208.899767482284  60.91288  105.213148467586  -0.780669  24.597347  -90.172774  -14.831768  -46.132873  -42.990241  4.147315  19.536092  47.322397  -11.206949  22.083158  -11.016923  -39.169963  26.021017  -25.212007  7.831949  4.544502  65.461306  5.219368  -15.824998  -17.89811  -0.51791  -0.783636  1.479231  -1.463436  -2.109277  4.061175  -1.463436  -2.109277  4.061175  -2.134741  5.112993  9.286746  96.635365  28.331986  113.637526  -10.33982  3.07061  109.850159  86.333852  6.85718  4.980527  22.717864  -4.507641  7.538059  77.714316  4.185583  63.376385  -46.476212  23.104981  -148.791266  78.260566  1.618833  11.375331  -41.315633  -7.910455  -0.15429  -30.938846  -5.954723  -0.658415  
209.005512161041  61.144413  105.252531467586  -0.532827  24.878303  -90.662656  -13.670867  -43.811715  -43.25439  2.130524  18.360809  46.91029  -11.723959  22.474568  -11.187017  -38.98371  26.286242  -24.822437  7.932164  5.619297  65.603477  5.641524  -15.926419  -17.771028  -0.524764  -0.761625  1.522292  -1.482113  -2.047731  4.178571  -1.482113  -2.047731  4.178572  -2.225572  5.21667  9.419044  97.052863  28.565361  113.892293  -10.403254  2.900202  109.620594  86.623276  6.729585  5.107276  22.521629  -4.502165  7.735107  77.851134  4.377405  63.414876  -46.326437  23.083594  -148.704926  78.157104  1.664388  11.0859  -41.595563  -7.539969  -0.135206  -31.152731  -5.677018  -0.621961  
209.457051839797  61.7663  105.443815467586  -0.228441  24.935856  -91.046766  -11.97291  -40.633189  -43.495155  -1.082096  17.362358  46.26219  -11.726266  22.737173  -11.335915  -38.968895  26.365625  -24.666586  8.17856  6.90413  65.534825  6.268853  -15.988979  -17.493259  -0.534437  -0.72914  1.564489  -1.507698  -1.957388  4.293408  -1.507698  -1.957387  4.293408  -2.1332  5.309324  9.353732  97.323405  28.619659  114.102779  -10.490156  2.76563  109.450773  86.862807  6.667262  5.27966  22.443594  -4.476632  7.807269  77.849519  4.575642  63.524783  -45.964718  22.970991  -148.569844  78.105282  1.773626  10.848658  -41.750597  -7.234324  -0.151727  -31.272607  -5.445584  -0.615021  
209.964088518554  62.498024  105.741178467586  0.051545  24.709196  -91.277119  -9.903237  -37.286381  -43.661402  -5.013214  16.634452  45.502985  -11.054532  22.927468  -11.537195  -38.981052  26.195101  -24.73785  8.564371  8.273685  65.473481  7.114744  -16.04527  -17.258398  -0.520491  -0.697435  1.601301  -1.46853  -1.870846  4.39286  -1.46853  -1.870846  4.39286  -1.822639  5.349337  9.1877  97.324281  28.644869  114.286782  -10.579084  2.670222  109.350864  87.046578  6.681521  5.497061  22.372862  -4.431942  7.737316  77.779131  4.766483  63.706202  -45.590999  22.822801  -148.432877  78.039658  1.983603  10.596561  -41.89124  -7.075384  -0.239233  -31.380764  -5.319849  -0.671522  
210.30983919731  63.071957  106.006574467586  0.241199  24.149201  -91.403814  -7.902434  -34.810525  -43.627903  -8.449734  16.391931  44.719086  -10.02771  23.101561  -11.711412  -38.889664  25.802124  -24.95006  9.139048  9.505189  65.490008  7.903994  -16.090562  -17.11647  -0.490275  -0.669384  1.629206  -1.384821  -1.795627  4.467649  -1.384821  -1.795627  4.467649  -1.359967  5.356114  9.063773  97.227991  28.741078  114.426791  -10.63696  2.649909  109.336673  87.199194  6.77351  5.696206  22.341191  -4.413444  7.644085  77.732954  4.990557  63.905362  -45.41227  22.771751  -148.389545  77.903883  2.280899  10.244687  -41.909928  -7.021394  -0.336977  -31.396481  -5.272404  -0.741593  
210.351298876067  63.343609  106.145872467586  0.350197  23.223122  -91.396021  -6.119062  -33.614866  -43.545619  -10.781202  16.571818  43.988561  -8.91761  23.412129  -11.796267  -38.746226  25.209861  -25.339681  9.97212  10.330706  65.550559  8.509214  -16.120005  -17.042097  -0.42282  -0.649355  1.636889  -1.199328  -1.745335  4.486433  -1.199328  -1.745335  4.486434  -1.004219  5.392108  8.997197  97.166363  28.868389  114.494458  -10.658307  2.763461  109.394215  87.304435  6.896836  5.846186  22.207402  -4.413206  7.609658  77.775287  5.288622  64.141629  -45.558709  22.8825  -148.46975  77.648663  2.687028  9.686993  -41.915458  -7.057056  -0.456435  -31.401619  -5.291059  -0.834141  
210.110868554823  63.294903  106.309141467586  0.42782  22.001488  -91.302867  -4.709849  -33.725409  -43.398831  -11.56883  17.052423  43.607756  -8.148572  23.624419  -11.975908  -38.594199  24.503468  -25.868082  10.996936  10.728329  65.604075  8.907843  -15.955485  -17.003322  -0.349252  -0.625619  1.624578  -0.996368  -1.685681  4.450441  -0.996368  -1.685681  4.450441  -0.672454  5.453717  9.002817  97.170821  28.928847  114.491541  -10.716488  2.99188  109.492452  87.348312  7.017966  5.951192  22.022177  -4.462063  7.675748  78.004513  5.708644  64.415132  -45.871742  23.054831  -148.704827  77.284336  3.03139  8.842088  -41.81069  -7.120534  -0.541808  -31.323467  -5.332984  -0.901621  
209.77032423358  63.130875  106.200239467586  0.451171  20.417211  -91.277054  -3.936614  -34.762348  -42.796545  -11.150405  17.50998  43.150952  -7.472163  23.858014  -12.021008  -38.204363  23.751095  -26.361301  12.095928  10.765597  65.637957  9.057863  -15.73107  -16.962599  -0.261862  -0.60354  1.623078  -0.756042  -1.631269  4.443829  -0.756042  -1.631269  4.44383  -0.286524  5.587501  9.015291  97.183715  28.881019  114.402184  -10.883602  3.248763  109.628816  87.318888  7.132385  6.025308  21.707011  -4.468198  7.805604  78.484649  6.311193  64.714064  -46.26014  23.276331  -148.895869  76.929567  3.449217  7.688677  -41.595477  -7.200537  -0.620302  -31.162352  -5.387826  -0.963689  
209.420197912336  62.969147  106.078214467586  0.469175  18.467362  -91.313433  -3.381121  -36.140878  -41.757984  -9.968236  17.688041  42.788967  -7.190688  24.043816  -12.154616  -37.459349  23.051096  -26.838023  13.162344  10.556292  65.682486  9.051194  -15.409699  -16.957406  -0.173091  -0.574734  1.628963  -0.511673  -1.558492  4.457457  -0.511673  -1.558492  4.457458  0.284768  5.78673  9.063307  97.203075  28.720162  114.2649  -11.212953  3.449723  109.803975  87.224369  7.257898  6.092422  21.357416  -4.42785  8.040333  79.106711  7.14117  64.996094  -46.644613  23.629609  -149.054129  76.697244  3.837952  6.304872  -41.217482  -7.23794  -0.667198  -30.879406  -5.412692  -0.996945  
209.181659591093  62.905285  105.864057467586  0.500413  16.156971  -91.302767  -2.987927  -37.516266  -40.39012  -8.246771  17.393181  42.499184  -7.208291  24.243307  -12.29522  -36.435572  22.313022  -27.44098  14.209681  10.258372  65.741951  9.016604  -15.112815  -16.939103  -0.083324  -0.533473  1.611346  -0.263218  -1.451899  4.406938  -0.263218  -1.451899  4.406938  1.118977  6.002234  9.165458  97.199499  28.430668  114.086762  -11.683475  3.608123  110.045827  87.063547  7.417158  6.150892  20.920457  -4.390306  8.371911  79.867222  8.117367  65.278965  -46.932241  24.119904  -149.146868  76.976325  4.063967  4.747386  -40.692607  -7.179154  -0.626777  -30.486417  -5.370906  -0.956049  
